<svg version="1.2" baseProfile="tiny-ps" xmlns="http://www.w3.org/2000/svg" viewBox="0 0 274 204" width="274" height="204">
	<title>332b9ff1[1]-svg</title>
	<style>
		tspan { white-space:pre }
		.shp0 { fill: #00bfd6 } 
		.shp1 { fill: #ffffff;stroke: #000000 } 
		.shp2 { fill: none;stroke: #000000;stroke-linecap:round;stroke-linejoin:round } 
		.shp3 { fill: #e6e6e6;stroke: #000000;stroke-linecap:round;stroke-linejoin:round } 
		.shp4 { fill: #ffffff;stroke: #000000;stroke-width: 1 } 
		.shp5 { fill: #fbb03b;stroke: #000000 } 
		.shp6 { fill: #ffffff;stroke: #000000;stroke-linecap:round;stroke-linejoin:round } 
		.shp7 { fill: none;stroke: #000000 } 
		.shp8 { fill: #262122 } 
		.shp9 { fill: #ecd1af } 
	</style>
	<g id="Layer" style="opacity: 0.4">
		<path id="Layer" class="shp0" d="M221.11 166.67C173.35 212.26 135.71 210.05 87.94 164.46C42.35 120.94 39.94 80.46 85.52 36.91C133.29 -8.68 159.23 11.95 219 40C280.88 69.1 266.71 123.15 221.11 166.67Z" />
	</g>
	<path id="Layer" class="shp1" d="M244.66 148.32L256.39 148.32C256.87 148.32 257.34 148.23 257.78 148.04C258.22 147.86 258.62 147.59 258.96 147.26C259.29 146.92 259.56 146.52 259.74 146.08C259.93 145.64 260.02 145.17 260.02 144.69L260.02 84.22C260.02 80.65 259.32 77.1 257.95 73.8C256.58 70.5 254.58 67.5 252.05 64.97C249.52 62.44 246.52 60.44 243.22 59.07C239.92 57.7 236.37 57 232.8 57L201 57C200.4 57 199.81 57.12 199.26 57.35C198.71 57.57 198.21 57.91 197.79 58.33C197.37 58.75 197.03 59.25 196.81 59.8C196.58 60.35 196.46 60.94 196.46 61.54L196.46 148.32L208.83 148.32C208.84 143.57 210.72 139.02 214.08 135.66C217.43 132.31 221.99 130.42 226.74 130.42C231.48 130.42 236.04 132.31 239.39 135.66C242.75 139.02 244.64 143.57 244.64 148.32" />
	<path id="Layer" class="shp1" d="M226.76 165.22C218.39 165.22 211.62 158.45 211.62 150.08C211.62 141.71 218.39 134.94 226.76 134.94C235.13 134.94 241.9 141.71 241.9 150.08C241.9 158.45 235.13 165.22 226.76 165.22Z" />
	<path id="Layer" class="shp2" d="M216.59 150.54C216.59 151.78 216.83 153.01 217.3 154.15C217.77 155.3 218.46 156.34 219.34 157.22C220.21 158.1 221.25 158.79 222.39 159.27C223.54 159.75 224.76 160 226 160" />
	<path id="Layer" class="shp3" d="M226.76 154.8C224.15 154.8 222.04 152.69 222.04 150.08C222.04 147.47 224.15 145.36 226.76 145.36C229.37 145.36 231.48 147.47 231.48 150.08C231.48 152.69 229.37 154.8 226.76 154.8Z" />
	<path id="Layer" class="shp1" d="M128.23 164.98C119.86 164.98 113.09 158.21 113.09 149.84C113.09 141.47 119.86 134.7 128.23 134.7C136.6 134.7 143.37 141.47 143.37 149.84C143.37 158.21 136.6 164.98 128.23 164.98Z" />
	<path id="Layer" class="shp2" d="M138.39 149.38C138.39 148.14 138.15 146.91 137.67 145.77C137.2 144.62 136.5 143.58 135.63 142.7C134.75 141.83 133.71 141.13 132.56 140.66C131.42 140.18 130.19 139.94 128.95 139.94" />
	<path id="Layer" class="shp3" d="M128.23 154.56C125.62 154.56 123.51 152.45 123.51 149.84C123.51 147.23 125.62 145.12 128.23 145.12C130.84 145.12 132.95 147.23 132.95 149.84C132.95 152.45 130.84 154.56 128.23 154.56Z" />
	<path id="Layer" class="shp4" d="M164.43 165.28C156.06 165.36 149.22 158.66 149.14 150.29C149.06 141.92 155.76 135.08 164.13 135C172.5 134.91 179.34 141.61 179.42 149.99C179.5 158.36 172.8 165.19 164.43 165.28Z" />
	<path id="Layer" class="shp2" d="M174.48 149.52C174.47 148.28 174.21 147.06 173.72 145.91C173.24 144.77 172.53 143.74 171.64 142.87C170.76 142.01 169.71 141.32 168.56 140.86C167.41 140.4 166.18 140.17 164.94 140.18" />
	<path id="Layer" class="shp3" d="M164.37 154.8C161.76 154.83 159.62 152.74 159.6 150.13C159.57 147.52 161.66 145.39 164.27 145.36C166.88 145.33 169.01 147.42 169.04 150.03C169.06 152.64 166.98 154.77 164.37 154.8Z" />
	<path id="Layer" class="shp1" d="M79.21 164.98C70.84 164.98 64.07 158.21 64.07 149.84C64.07 141.47 70.84 134.7 79.21 134.7C87.58 134.7 94.35 141.47 94.35 149.84C94.35 158.21 87.58 164.98 79.21 164.98Z" />
	<path id="Layer" class="shp2" d="M69 150.29C69 151.53 69.24 152.76 69.72 153.9C70.19 155.05 70.89 156.09 71.76 156.97C72.64 157.84 73.68 158.54 74.83 159.01C75.97 159.49 77.2 159.73 78.44 159.73" />
	<path id="Layer" class="shp3" d="M79.21 154.56C76.6 154.56 74.49 152.45 74.49 149.84C74.49 147.23 76.6 145.12 79.21 145.12C81.82 145.12 83.93 147.23 83.93 149.84C83.93 152.45 81.82 154.56 79.21 154.56Z" />
	<path id="Layer" class="shp1" d="M43.53 165.22C35.16 165.22 28.39 158.45 28.39 150.08C28.39 141.71 35.16 134.94 43.53 134.94C51.9 134.94 58.67 141.71 58.67 150.08C58.67 158.45 51.9 165.22 43.53 165.22Z" />
	<path id="Layer" class="shp2" d="M33.37 150.54C33.37 151.78 33.61 153.01 34.08 154.16C34.56 155.31 35.25 156.35 36.13 157.23C37 158.11 38.05 158.8 39.19 159.28C40.34 159.76 41.57 160 42.81 160" />
	<path id="Layer" class="shp3" d="M43.53 154.8C40.92 154.8 38.81 152.69 38.81 150.08C38.81 147.47 40.92 145.36 43.53 145.36C46.14 145.36 48.25 147.47 48.25 150.08C48.25 152.69 46.14 154.8 43.53 154.8Z" />
	<path id="Layer" class="shp5" d="M259.6 122.17L255.75 122.17C255.16 122.17 254.58 122.26 254.02 122.43C253.46 122.6 252.93 122.85 252.44 123.18C251.96 123.51 251.52 123.9 251.15 124.36C250.78 124.81 250.48 125.32 250.26 125.86L250.26 125.86C249.89 126.76 249.75 127.74 249.85 128.71C249.94 129.68 250.28 130.61 250.82 131.41C251.37 132.22 252.1 132.89 252.96 133.34C253.82 133.8 254.78 134.04 255.75 134.04L259.6 134.04" />
	<path id="Layer" class="shp6" d="M110.31 148.32C110.31 144.19 111.73 140.18 114.35 136.98C116.96 133.78 120.6 131.58 124.65 130.76C128.7 129.93 132.91 130.54 136.56 132.46C140.22 134.39 143.1 137.52 144.71 141.32L147.81 141.32C149.42 137.52 152.3 134.39 155.96 132.46C159.61 130.54 163.82 129.93 167.87 130.76C171.92 131.58 175.56 133.78 178.17 136.98C180.79 140.18 182.21 144.19 182.21 148.32L191 148.32L191 44.76C191 43.93 190.84 43.1 190.52 42.33C190.2 41.56 189.73 40.86 189.14 40.27C188.55 39.68 187.85 39.21 187.08 38.89C186.31 38.57 185.48 38.41 184.65 38.41L20.55 38.41C19.72 38.41 18.89 38.57 18.12 38.89C17.35 39.21 16.65 39.68 16.06 40.27C15.47 40.86 15 41.56 14.68 42.33C14.36 43.1 14.2 43.93 14.2 44.76L14.2 144.69C14.2 145.17 14.29 145.64 14.48 146.08C14.66 146.52 14.93 146.92 15.26 147.26C15.6 147.59 16 147.86 16.44 148.04C16.88 148.23 17.35 148.32 17.83 148.32L25.49 148.32C25.49 144.19 26.91 140.18 29.53 136.98C32.14 133.78 35.78 131.58 39.83 130.76C43.88 129.93 48.09 130.54 51.74 132.46C55.4 134.39 58.28 137.52 59.89 141.32L63 141.32C64.61 137.52 67.49 134.39 71.15 132.46C74.8 130.54 79.01 129.93 83.06 130.76C87.11 131.58 90.75 133.78 93.36 136.98C95.98 140.18 97.4 144.19 97.4 148.32L110.31 148.32Z" />
	<path id="Layer" class="shp3" d="M265.57 146.67C265.57 148.53 264.06 150.04 262.2 150.04L253.96 150.04C252.1 150.04 250.59 148.53 250.59 146.67L250.59 146.67C250.59 144.81 252.1 143.3 253.96 143.3L262.2 143.3C264.06 143.3 265.57 144.81 265.57 146.67L265.57 146.67Z" />
	<path id="Layer" class="shp3" d="M23 146.67C23 148.42 21.58 149.84 19.83 149.84L14.49 149.84C12.74 149.84 11.32 148.42 11.32 146.67L11.32 146.67C11.32 144.92 12.74 143.5 14.49 143.5L19.83 143.5C21.58 143.5 23 144.92 23 146.67L23 146.67Z" />
	<path id="Layer" class="shp3" d="M249.68 99.53L219.1 99.53C218.81 99.53 218.53 99.47 218.26 99.36C218 99.25 217.75 99.09 217.55 98.89C217.35 98.69 217.19 98.44 217.08 98.18C216.97 97.91 216.91 97.63 216.91 97.34L216.91 66.76C216.91 66.47 216.97 66.19 217.08 65.92C217.19 65.66 217.35 65.41 217.55 65.21C217.75 65.01 218 64.85 218.26 64.74C218.53 64.63 218.81 64.57 219.1 64.57L228.45 64.57C231.52 64.57 234.57 65.18 237.41 66.35C240.25 67.53 242.83 69.25 245 71.43C247.18 73.6 248.9 76.18 250.08 79.02C251.25 81.86 251.86 84.91 251.86 87.98L251.86 97.34C251.86 97.63 251.8 97.91 251.69 98.18C251.58 98.44 251.42 98.69 251.22 98.89C251.02 99.09 250.77 99.25 250.51 99.36C250.24 99.47 249.96 99.53 249.67 99.53L249.68 99.53Z" />
	<path id="Layer" class="shp3" d="M212.52 95.53C212.52 97.74 210.73 99.53 208.52 99.53L206.45 99.53C204.24 99.53 202.45 97.74 202.45 95.53L202.45 68.58C202.45 66.37 204.24 64.58 206.45 64.58L208.52 64.58C210.73 64.58 212.52 66.37 212.52 68.58L212.52 95.53Z" />
	<path id="Layer" class="shp7" d="M217.92 109.18C217.92 110.95 216.49 112.38 214.72 112.38L206.89 112.38C205.12 112.38 203.69 110.95 203.69 109.18L203.69 108.87C203.69 107.1 205.12 105.67 206.89 105.67L214.72 105.67C216.49 105.67 217.92 107.1 217.92 108.87L217.92 109.18Z" />
	<path id="Layer" class="shp2" d="M214.89 109.03L211.64 109.03" />
	<path id="Layer" class="shp6" d="M190.99 134.03L196.48 134.03L196.48 148.32L190.99 148.32L190.99 134.03Z" />
	<path id="Layer" class="shp2" d="M190.99 114.36L14.2 114.36" />
	<path id="Layer" fill-rule="evenodd" class="shp8" d="M69.78 71.2C69.7 70.89 69.63 70.57 69.54 70.22C68.57 70.49 67.75 70.83 67.91 72.03C66.66 72.07 65.52 72.17 64.38 72.47C62.81 72.9 62 72 61.2 70.43C60.77 69.6 60.54 68.07 58.85 68.15C57.94 68.18 57.69 67.57 58.03 66.53C58.39 65.39 59.72 64.88 59.61 63.54C60.19 63.5 60.68 63.47 61.19 63.44C61.47 62.39 60.68 62.21 59.96 62.02C60.26 61.34 60.2 60.44 61.26 60.58C60.77 58.65 61.74 58.72 64.51 58.38C64.55 57.86 64.94 57.22 63.92 57.15C63.22 57.1 62.92 56.6 63.38 56.22C64.96 54.9 65.97 53.12 67.35 51.67C68.13 50.84 69.65 50.97 70.64 50.15C71.32 49.59 73.2 49.83 73.95 50.44C74.38 50.02 74.54 49.38 75.07 49.21C79.07 48.3 81.96 50.52 84.76 52.96C84.73 53 84.51 53.41 84.2 53.99C86.19 53.84 86.42 55.55 87.3 56.53C87.36 56.89 87.19 57.28 87.62 57.57C88.86 58.38 88.54 59.85 88.57 60.9C88.61 62.53 86.92 62.96 85.71 63.49C85.04 63.46 85.29 62.42 84.46 62.62C83.58 62.85 84.08 63.67 83.72 64.06C84.08 64.46 84.59 64.41 85.04 64.57C85 65.61 84 65.9 83.42 65.86C82.15 65.78 82.67 63.97 81.53 63.47C80.45 64.42 80.43 65.92 79.75 67.09C78.23 69.69 77.88 69.81 75.05 68.54C74.7 68.38 73.98 67.94 73.9 68.98C73.87 69.32 73.49 69.61 73.09 69.71C72.88 69.46 73.07 68.96 72.62 68.91C72.2 68.88 72.05 69.19 72.04 69.56C71.96 71.99 71.62 74.48 73.29 76.7C74.41 74.78 72.64 72.81 73.4 70.83C74.06 71.33 74.41 71.93 75.08 72.01C74.98 74.58 74.1 76.96 74.33 79.45C74.33 79.45 74.25 79.52 74.25 79.52C74.18 79.6 74.12 79.68 74.05 79.76C74.17 80.96 74.29 82.15 74.41 83.34L74.41 83.36C74.43 83.68 74.44 84.01 74.45 84.34L74.45 84.37C74.45 85.35 74.45 86.33 74.45 87.31C74.48 90.53 74.54 93.74 74.53 96.95C74.52 98.11 75.1 98.53 76.14 98.53C81.79 98.53 87.44 98.25 93.09 98.52C93.55 98.54 94.04 98.51 94.24 98.04C95.28 95.51 96.68 93.12 97.27 90.4C97.78 88.01 97.11 87.24 95.02 87.59C93.13 87.55 91.69 86.49 90.27 85.41L90.27 85.42L90.24 85.36C88.86 83.11 87.31 81.07 84.32 81.08C84.41 79.72 85.18 79.31 86.12 79.36C86.8 79.4 87.47 79.4 88.07 79.17C89.25 78.71 89.89 79.16 90.33 80.21C90.53 80.72 90.81 81.2 91.05 81.7C91.98 83.65 93.3 84.35 95.3 83.94C97.13 83.57 98.15 82.32 98.24 80.28C98.27 79.53 98.69 78.96 98.92 78.31C99.39 77 101.47 76.65 100.95 74.82C101.21 73.65 101.83 72.53 101.45 71.27C101.2 70.46 101.46 69.88 102.32 69.98C103.05 70.07 103.83 70.48 103.54 71.46C103.43 71.83 103.38 72.11 103.64 72.32C104.78 73.26 104.58 74.59 104.74 75.82C104.46 76.77 104.18 77.72 103.89 78.66C104.58 78.97 105.14 78.74 105.74 78.64C106.94 78.42 108.35 77.86 109.22 79.14C109.69 79.83 110.26 80.26 110.89 80.64C112.42 81.54 113.42 82.9 113.85 84.51C114.38 86.49 114.57 88.57 114.9 90.6C114.91 90.66 114.79 90.74 114.69 90.85C113.64 89.99 114.37 88.66 113.83 87.47C112.55 91.19 114.62 94.9 112.7 98.44C116.14 98.62 119.07 98.4 121.98 98.8C124.5 98.86 127.06 98.49 129.52 99.36C107.49 100.29 85.46 100.31 63.39 99.55C63.68 98.63 64.33 98.87 64.84 98.86C66.44 98.84 68.05 98.84 69.65 98.86C70.11 98.86 70.54 98.85 70.87 98.48C72.05 98.65 73.02 98.46 73.02 96.98C73.03 94.17 72.99 91.35 72.97 88.54C72.97 86.53 72.96 84.53 72.96 82.52C72.74 79.33 71.7 76.28 71.36 73.11C71.25 72.1 70.98 71.28 69.78 71.2ZM85.04 64.57C85.04 64.56 85.04 64.56 85.04 64.55L85.06 64.57C85.06 64.57 85.05 64.57 85.04 64.57ZM102.11 88.86C101.95 89.7 101.7 90.37 102.04 90.98C102.98 92.69 103.22 94.49 103.04 96.42C102.91 97.83 103.55 98.55 105.1 98.39C106.08 98.29 107.09 98.42 108.08 98.46C108.7 98.48 109.29 98.46 109.79 98C110.78 97.06 111.68 93.83 111.03 92.59C110.15 90.93 109.34 89.29 109.38 87.4C106.7 87.18 104.73 89.19 102.11 88.86ZM99.54 89.98C97.73 92.55 96.86 95.52 94.97 98.39C97.46 98.39 99.48 98.39 101.5 98.39C101.71 98.38 101.92 98.33 102.11 98.3C102.54 96.06 101.25 91.66 99.54 89.98ZM78.27 64.19C78.04 63.45 77.92 62.58 77.07 62.63C76.39 62.67 75.67 63.21 75.7 63.98C75.73 64.67 76.41 65.26 77.03 65.34C77.68 65.43 78.18 64.86 78.27 64.19ZM111.53 98.09C112.6 97.09 112.5 96 112.41 94.91C112.05 95.85 111.1 96.6 111.53 98.09ZM78.3 59.91C79.05 59.09 79.97 58.68 79.92 57.53C78.29 58.18 78.29 58.18 78.3 59.91Z" />
	<path id="Layer" fill-rule="evenodd" class="shp9" d="M100.95 74.82C100.07 74.12 99.43 75.09 98.65 75.16C95.47 75.42 92.36 74.83 89.24 74.4C88.32 74.27 88.08 73.69 88.78 72.86C90.06 71.35 93.44 70.56 95.2 71.43C96.55 72.08 99.05 71.41 99.6 70.07C100.07 68.94 100.85 68.47 101.93 68.26C103.44 67.95 104.31 67.24 104.39 65.5C104.5 63.1 107.88 61.46 110.12 62.65C110.9 63.06 111.65 63.41 112.54 63.61C114 63.92 114.86 65.2 115.26 66.47C116.34 69.84 118.8 70.18 120.63 67.85C121.37 68.15 122.08 68.77 122.89 67.96C122.98 67.88 123.27 67.85 123.36 67.93C125.31 69.65 126.69 67.74 128.22 67.1C129.43 66.6 130.47 66.99 131.07 68.44C131.4 69.25 131.39 70.05 131.11 70.93C132.22 71.36 133.24 71.65 134.46 71.25C135.39 70.95 136.59 70.93 136.92 72.24C137.25 73.52 136.48 74.39 135.33 74.78C133.77 75.31 132.2 75.4 130.49 75.33C128.66 75.25 126.51 74.86 124.82 76.28C124.19 76.16 124.39 75.14 123.55 75.17C122.46 75.2 121.36 75.07 120.27 75.07C117.8 75.07 115.31 75.31 112.87 75.09C110.08 74.84 107.43 75.41 104.74 75.82C104.58 74.59 104.78 73.26 103.65 72.32C103.38 72.11 103.43 71.83 103.54 71.46C103.83 70.48 103.05 70.07 102.32 69.98C101.46 69.88 101.2 70.46 101.45 71.27C101.83 72.53 101.21 73.65 100.95 74.82Z" />
	<path id="Layer" fill-rule="evenodd" class="shp9" d="M72.96 82.52C72.96 84.53 72.97 86.53 72.97 88.54C71.18 88.48 69.44 87.71 67.62 88.19C64.86 88.82 62.05 88.18 59.28 88.53C57.94 88.7 56.81 88.02 55.65 87.58C54.9 87.3 54.77 86.45 55.09 85.72C55.41 84.96 56.05 84.62 56.85 84.96C57.86 85.38 58.78 85.18 59.69 84.69C59.69 84.08 59.6 83.47 59.71 82.89C60.03 81.25 61.31 80.7 62.62 81.68C63.42 82.29 64.62 82.09 65.13 83.18C65.9 82.7 66.59 82.27 67.27 81.84C69.31 83.34 71.35 83.58 72.96 82.52Z" />
	<path id="Layer" fill-rule="evenodd" class="shp8" d="M72.49 102.72C88.6 101.6 104.71 101.58 120.83 102.73C104.72 103.87 88.6 103.86 72.49 102.72Z" />
	<path id="Layer" fill-rule="evenodd" class="shp8" d="M112.28 106.21C101.53 107.37 90.76 107.27 79.99 106.26C90.74 105.11 101.5 105.22 112.28 106.21Z" />
	<path id="Layer" fill-rule="evenodd" class="shp9" d="M67.58 79.49C67.66 79.97 67.8 80.47 67.31 80.84C67.26 80.36 67.18 79.88 67.58 79.49Z" />
	<path id="Layer" fill-rule="evenodd" class="shp9" d="M95.02 87.59C92.78 88.37 90.46 88.3 88.15 88.14C86.16 88.01 84.25 88.01 82.22 88.37C79.94 88.77 77.5 88.29 75.12 88.18C74.62 88.15 74.72 87.57 74.45 87.31C74.45 86.33 74.45 85.35 74.45 84.37C74.45 84.37 74.53 84.35 74.53 84.35L74.45 84.34C74.44 84.01 74.43 83.68 74.41 83.36C74.41 83.36 74.49 83.35 74.49 83.35L74.41 83.34C74.29 82.15 74.17 80.96 74.05 79.76C74.11 79.68 74.18 79.6 74.25 79.51C74.25 79.51 74.33 79.45 74.33 79.45C76.24 78.18 78.36 77.73 80.62 77.78C81.65 77.81 82.17 78.3 82.4 79.36C82.72 80.86 83.2 82.25 85.11 82.63C86.42 82.88 86.99 84.4 88.22 85.01C88.92 85.35 89.51 85.58 90.24 85.36C90.24 85.36 90.27 85.41 90.27 85.41C90.26 85.46 90.24 85.51 90.23 85.55C90.24 85.5 90.26 85.45 90.27 85.41C91.69 86.49 93.13 87.55 95.02 87.59Z" />
	<path id="Layer" class="shp2" d="M236.07 109.03L247.72 109.03" />
	<path id="Layer" class="shp2" d="M212.19 51.81L212.19 54.85" />
	<path id="Layer" class="shp2" d="M215.44 51.81L215.44 54.85" />
	<path id="Layer" class="shp2" d="M218.56 51.81L218.56 54.85" />
	<path id="Layer" class="shp2" d="M221.81 51.81L221.81 54.85" />
	<path id="Layer" class="shp2" d="M148.6 114.35L148.6 116.93" />
	<path id="Layer" class="shp2" d="M147.25 116.93L150.16 116.93" />
	<path id="Layer" class="shp2" d="M143.03 114.35L143.03 116.93" />
	<path id="Layer" class="shp2" d="M141.68 116.93L144.59 116.93" />
	<path id="Layer" class="shp2" d="M64.68 114.35L64.68 116.93" />
	<path id="Layer" class="shp2" d="M63.33 116.93L66.24 116.93" />
	<path id="Layer" class="shp2" d="M59.11 114.35L59.11 116.93" />
	<path id="Layer" class="shp2" d="M57.76 116.93L60.67 116.93" />
</svg>