<svg version="1.2" baseProfile="tiny-ps" xmlns="http://www.w3.org/2000/svg" viewBox="0 0 274 204" width="274" height="204">
	<title>3db3cdeb[1]-svg</title>
	<style>
		tspan { white-space:pre }
		.shp0 { fill: #00bfd6 } 
		.shp1 { fill: #ffffff;stroke: #000000;stroke-linecap:round;stroke-linejoin:round } 
		.shp2 { fill: none;stroke: #000000;stroke-linecap:round;stroke-linejoin:round } 
		.shp3 { fill: #ffffff;stroke: #000000;stroke-width: 1.004 } 
		.shp4 { fill: #ffffff;stroke: #000000 } 
		.shp5 { fill: #e6e6e6;stroke: #000000;stroke-linecap:round;stroke-linejoin:round } 
		.shp6 { fill: #262122 } 
		.shp7 { fill: #ecd1af } 
	</style>
	<g id="Layer" style="opacity: 0.4">
		<path id="Layer" class="shp0" d="M204.11 166.67C156.35 212.26 118.71 210.05 70.94 164.46C25.35 120.94 22.94 80.46 68.52 36.91C116.29 -8.68 142.23 11.95 202 40C263.88 69.1 249.71 123.15 204.11 166.67Z" />
	</g>
	<path id="Layer" class="shp1" d="M124.66 97.71L115.4 62.63C115.23 61.99 115.19 61.33 115.28 60.68C115.38 60.02 115.59 59.39 115.93 58.83C116.26 58.26 116.71 57.76 117.23 57.37C117.76 56.97 118.36 56.68 119 56.52L149.24 48.52C149.87 48.35 150.54 48.31 151.19 48.4C151.84 48.49 152.46 48.7 153.03 49.03C153.6 49.37 154.1 49.8 154.49 50.33C154.89 50.85 155.18 51.45 155.35 52.08L164.61 87.15" />
	<path id="Layer" class="shp1" d="M124.6 97.47L181.57 82.43C182.2 82.27 182.87 82.22 183.52 82.31C184.17 82.4 184.79 82.62 185.36 82.95C185.93 83.28 186.43 83.72 186.82 84.24C187.22 84.76 187.51 85.36 187.68 85.99L202.72 142.96L140.92 159.28L124.6 97.47Z" />
	<path id="Layer" class="shp2" d="M138.86 109.87C138.15 107.2 139.75 104.46 142.42 103.75L174 95.41C176.67 94.71 179.41 96.3 180.11 98.97L188.45 130.56C189.16 133.23 187.57 135.97 184.9 136.67L153.31 145.01C150.64 145.72 147.9 144.12 147.2 141.45L138.86 109.87Z" />
	<path id="Layer" class="shp3" d="M100.81 45.4C100.06 42.61 101.72 39.74 104.51 38.99L104.51 38.99C107.3 38.24 110.18 39.9 110.93 42.69L142.02 158.68C142.77 161.48 141.11 164.35 138.31 165.1L138.31 165.1C135.52 165.85 132.65 164.19 131.9 161.39L100.81 45.4Z" />
	<path id="Layer" class="shp4" d="M222.07 137.63C224.92 136.87 227.84 138.57 228.6 141.43L228.6 141.43C229.35 144.28 227.65 147.2 224.8 147.95L141.61 169.92C138.76 170.67 135.83 168.97 135.08 166.12L135.08 166.12C134.33 163.26 136.03 160.34 138.88 159.59L222.07 137.63Z" />
	<path id="Layer" class="shp4" d="M99.84 33.7C102.63 32.97 105.48 34.63 106.21 37.42L106.21 37.42C106.95 40.2 105.29 43.05 102.5 43.79L76.61 50.63C73.83 51.36 70.97 49.7 70.24 46.91L70.24 46.91C69.5 44.13 71.16 41.28 73.95 40.54L99.84 33.7Z" />
	<path id="Layer" class="shp4" d="M105.95 46.58C101.36 47.79 96.66 45.06 95.44 40.46C94.23 35.86 96.97 31.16 101.56 29.95C106.16 28.74 110.86 31.47 112.07 36.07C113.29 40.67 110.55 45.37 105.95 46.58Z" />
	<path id="Layer" class="shp1" d="M141.37 181.16C132.51 183.5 123.47 178.23 121.13 169.38C118.79 160.52 124.06 151.47 132.91 149.14C141.77 146.8 150.81 152.07 153.15 160.92C155.49 169.77 150.22 178.82 141.37 181.16Z" />
	<path id="Layer" class="shp5" d="M138.93 171.94C135.18 172.93 131.34 170.69 130.35 166.94C129.36 163.19 131.59 159.35 135.35 158.36C139.1 157.37 142.94 159.6 143.93 163.36C144.92 167.11 142.69 170.94 138.93 171.94Z" />
	<path id="Layer" class="shp5" d="M127.3 54.32L140.83 50.75L145.5 68.41C145.56 68.67 145.58 68.93 145.55 69.19C145.51 69.45 145.42 69.7 145.29 69.93C145.16 70.16 144.98 70.36 144.78 70.52C144.57 70.68 144.33 70.79 144.07 70.86L134.41 73.41C134.15 73.48 133.89 73.5 133.63 73.46C133.37 73.42 133.12 73.34 132.89 73.21C132.66 73.07 132.46 72.9 132.3 72.69C132.14 72.48 132.03 72.24 131.96 71.99L127.3 54.32Z" />
	<path id="Layer" fill-rule="evenodd" class="shp6" d="M152.21 122.9C152.15 122.78 152.08 122.66 152.01 122.52C151.64 122.74 151.34 122.96 151.53 123.44C151.02 123.58 150.56 123.74 150.12 123.98C149.52 124.32 149.09 124.04 148.6 123.47C148.34 123.17 148.09 122.57 147.4 122.78C147.02 122.89 146.86 122.66 146.89 122.19C146.92 121.69 147.42 121.34 147.23 120.8C147.47 120.72 147.66 120.66 147.87 120.6C147.88 120.14 147.54 120.14 147.22 120.14C147.28 119.83 147.15 119.46 147.61 119.41C147.2 118.67 147.61 118.6 148.72 118.17C148.68 117.95 148.77 117.65 148.34 117.73C148.05 117.78 147.88 117.61 148.03 117.4C148.54 116.69 148.77 115.86 149.19 115.12C149.43 114.69 150.06 114.59 150.39 114.15C150.61 113.85 151.41 113.75 151.78 113.93C151.91 113.71 151.91 113.43 152.11 113.31C153.66 112.52 155.08 113.13 156.49 113.85C156.48 113.87 156.43 114.06 156.36 114.33C157.17 114.06 157.44 114.74 157.9 115.05C157.96 115.19 157.93 115.37 158.14 115.45C158.73 115.65 158.76 116.29 158.88 116.72C159.06 117.39 158.41 117.74 157.97 118.08C157.69 118.14 157.68 117.68 157.36 117.85C157.02 118.04 157.31 118.32 157.21 118.52C157.4 118.65 157.6 118.58 157.8 118.59C157.89 119.03 157.51 119.25 157.27 119.29C156.74 119.39 156.77 118.59 156.25 118.51C155.9 119.01 156.05 119.63 155.89 120.18C155.53 121.41 155.4 121.49 154.1 121.26C153.95 121.23 153.6 121.12 153.67 121.56C153.7 121.7 153.57 121.86 153.42 121.94C153.31 121.87 153.33 121.64 153.14 121.67C152.97 121.69 152.94 121.84 152.97 121.99C153.19 123 153.3 124.06 154.22 124.8C154.49 123.9 153.55 123.27 153.66 122.38C153.99 122.51 154.19 122.73 154.47 122.69C154.7 123.76 154.58 124.83 154.94 125.83C154.93 125.83 154.91 125.86 154.91 125.86C154.89 125.9 154.87 125.94 154.85 125.98C155.03 126.46 155.2 126.94 155.37 127.42L155.37 127.43C155.41 127.56 155.45 127.69 155.49 127.82L155.49 127.84C155.6 128.24 155.7 128.65 155.8 129.05C156.14 130.37 156.5 131.69 156.83 133.01C156.95 133.49 157.22 133.6 157.65 133.49C159.98 132.91 162.28 132.21 164.63 131.73C164.82 131.69 165.02 131.63 165.05 131.42C165.22 130.27 165.55 129.14 165.51 127.96C165.47 126.92 165.12 126.68 164.29 127.04C163.51 127.22 162.81 126.93 162.11 126.63L162.11 126.63L162.1 126.61C161.29 125.83 160.45 125.15 159.22 125.46C159.11 124.9 159.38 124.65 159.78 124.57C160.06 124.52 160.34 124.45 160.56 124.29C161 123.98 161.31 124.1 161.6 124.49C161.74 124.67 161.9 124.84 162.05 125.02C162.63 125.73 163.25 125.88 164.03 125.51C164.75 125.16 165.04 124.54 164.86 123.7C164.79 123.38 164.91 123.1 164.94 122.81C165 122.22 165.81 121.87 165.41 121.17C165.4 120.66 165.54 120.13 165.25 119.66C165.06 119.35 165.11 119.08 165.47 119.04C165.78 119 166.15 119.09 166.13 119.52C166.12 119.68 166.13 119.8 166.26 119.86C166.83 120.13 166.88 120.7 167.07 121.19C167.06 121.61 167.04 122.03 167.02 122.44C167.33 122.5 167.54 122.35 167.78 122.24C168.25 122.03 168.77 121.65 169.26 122.09C169.53 122.32 169.81 122.45 170.11 122.53C170.83 122.75 171.38 123.21 171.72 123.82C172.15 124.58 172.44 125.42 172.78 126.22C172.79 126.24 172.75 126.29 172.72 126.35C172.2 126.1 172.37 125.48 172.02 125.04C171.88 126.71 173.11 128.02 172.69 129.67C174.12 129.39 175.31 129 176.55 128.86C177.59 128.62 178.6 128.21 179.71 128.31C170.74 130.97 161.67 133.26 152.51 135.23C152.54 134.82 152.83 134.85 153.04 134.8C153.7 134.62 154.36 134.46 155.02 134.3C155.21 134.25 155.38 134.2 155.48 134.01C155.98 133.96 156.36 133.78 156.21 133.18C155.92 132.02 155.62 130.86 155.32 129.71C155.11 128.88 154.9 128.06 154.69 127.23C154.27 125.94 153.53 124.79 153.06 123.52C152.91 123.12 152.71 122.81 152.21 122.9ZM157.8 118.59C157.8 118.59 157.8 118.59 157.8 118.59L157.81 118.59C157.81 118.59 157.81 118.59 157.8 118.59ZM167.34 126.82C167.36 127.19 167.33 127.49 167.53 127.71C168.09 128.31 168.38 129.03 168.5 129.84C168.6 130.43 168.94 130.66 169.56 130.44C169.95 130.29 170.38 130.24 170.79 130.16C171.05 130.1 171.29 130.04 171.45 129.79C171.76 129.3 171.79 127.88 171.4 127.44C170.86 126.85 170.36 126.25 170.18 125.47C169.05 125.66 168.45 126.69 167.34 126.82ZM166.4 127.55C165.92 128.8 165.87 130.11 165.39 131.49C166.41 131.23 167.24 131.02 168.07 130.81C168.16 130.79 168.24 130.74 168.32 130.71C168.26 129.75 167.27 128.07 166.4 127.55ZM154.98 119.14C154.81 118.86 154.67 118.51 154.32 118.62C154.05 118.71 153.81 119 153.9 119.32C153.98 119.6 154.33 119.77 154.59 119.74C154.87 119.71 155.01 119.42 154.98 119.14ZM172.17 129.65C172.51 129.13 172.36 128.69 172.21 128.25C172.15 128.67 171.84 129.08 172.17 129.65ZM154.55 117.37C154.77 116.96 155.11 116.69 154.97 116.23C154.37 116.66 154.37 116.66 154.55 117.37Z" />
	<path id="Layer" fill-rule="evenodd" class="shp7" d="M165.41 121.17C164.98 120.97 164.81 121.44 164.5 121.55C163.22 121.98 161.88 122.06 160.55 122.21C160.16 122.25 160 122.03 160.2 121.62C160.57 120.87 161.88 120.19 162.7 120.37C163.32 120.5 164.28 119.96 164.37 119.35C164.44 118.84 164.71 118.57 165.14 118.37C165.73 118.08 166.01 117.7 165.86 116.98C165.66 115.98 166.88 114.96 167.92 115.21C168.29 115.3 168.63 115.37 169.02 115.36C169.65 115.33 170.14 115.77 170.44 116.25C171.23 117.53 172.28 117.41 172.79 116.27C173.12 116.31 173.48 116.49 173.73 116.08C173.76 116.03 173.88 115.99 173.92 116.01C174.9 116.52 175.27 115.59 175.83 115.17C176.28 114.84 176.75 114.89 177.14 115.43C177.37 115.73 177.44 116.06 177.42 116.45C177.92 116.51 178.37 116.53 178.83 116.24C179.18 116.02 179.68 115.88 179.95 116.38C180.22 116.88 179.99 117.32 179.56 117.6C178.97 117.97 178.33 118.18 177.62 118.32C176.86 118.48 175.93 118.54 175.38 119.3C175.11 119.32 175.09 118.87 174.75 118.97C174.3 119.1 173.84 119.16 173.39 119.27C172.37 119.53 171.37 119.89 170.34 120.05C169.17 120.23 168.14 120.74 167.07 121.19C166.88 120.7 166.83 120.13 166.26 119.86C166.13 119.8 166.12 119.68 166.13 119.52C166.15 119.09 165.78 119 165.47 119.04C165.11 119.08 165.06 119.35 165.25 119.66C165.54 120.13 165.4 120.66 165.41 121.17Z" />
	<path id="Layer" fill-rule="evenodd" class="shp7" d="M154.69 127.23C154.9 128.06 155.11 128.88 155.32 129.71C154.57 129.87 153.78 129.73 153.08 130.12C152.01 130.66 150.78 130.69 149.68 131.12C149.15 131.33 148.61 131.16 148.09 131.11C147.75 131.07 147.61 130.73 147.67 130.4C147.72 130.05 147.95 129.85 148.31 129.9C148.77 129.97 149.13 129.79 149.45 129.5C149.39 129.25 149.29 129 149.28 128.75C149.24 128.05 149.71 127.69 150.35 127.96C150.74 128.12 151.21 127.91 151.53 128.31C151.8 128.03 152.04 127.79 152.28 127.54C153.27 127.94 154.14 127.83 154.69 127.23Z" />
	<path id="Layer" fill-rule="evenodd" class="shp7" d="M152.16 126.54C152.25 126.73 152.35 126.92 152.19 127.12C152.12 126.93 152.04 126.74 152.16 126.54Z" />
	<path id="Layer" fill-rule="evenodd" class="shp7" d="M164.29 127.04C163.45 127.59 162.49 127.8 161.52 127.97C160.69 128.13 159.9 128.32 159.11 128.68C158.21 129.08 157.15 129.14 156.17 129.34C155.96 129.38 155.94 129.13 155.8 129.05C155.7 128.65 155.6 128.24 155.49 127.84C155.49 127.84 155.53 127.82 155.53 127.82L155.49 127.82C155.45 127.69 155.41 127.56 155.37 127.43C155.37 127.43 155.4 127.41 155.4 127.41L155.37 127.42C155.2 126.94 155.03 126.46 154.85 125.98C154.87 125.94 154.89 125.9 154.91 125.86C154.91 125.86 154.93 125.83 154.93 125.83C155.59 125.11 156.42 124.7 157.35 124.49C157.78 124.39 158.04 124.54 158.25 124.95C158.54 125.54 158.87 126.06 159.7 126.02C160.27 125.99 160.66 126.56 161.23 126.68C161.55 126.75 161.81 126.78 162.09 126.61C162.1 126.61 162.11 126.63 162.11 126.63C162.11 126.65 162.11 126.67 162.11 126.69C162.11 126.67 162.11 126.65 162.11 126.63C162.81 126.93 163.51 127.22 164.29 127.04Z" />
</svg>