<svg version="1.2" baseProfile="tiny-ps" xmlns="http://www.w3.org/2000/svg" viewBox="0 0 274 204" width="274" height="204">
	<title>50450a73[3]-svg</title>
	<style>
		tspan { white-space:pre }
		.shp0 { opacity: 0.4;fill: #00bfd6 } 
		.shp1 { fill: #ffffff;stroke: #000000;stroke-linecap:round;stroke-linejoin:round } 
		.shp2 { fill: #cac8c8;stroke: #000000;stroke-linecap:round;stroke-linejoin:round } 
		.shp3 { fill: none;stroke: #000000;stroke-linecap:round;stroke-linejoin:round } 
		.shp4 { fill: #f2f2f2;stroke: #000000;stroke-linecap:round;stroke-linejoin:round } 
		.shp5 { fill: #cccccc;stroke: #000000 } 
		.shp6 { fill: #262122 } 
		.shp7 { fill: #ecd1af } 
	</style>
	<g id="Layer">
		<path id="Layer" class="shp0" d="M201.6 163.43C153.84 209.02 116.2 206.81 68.43 161.22C22.84 117.7 20.43 77.22 66.01 33.67C113.77 -11.92 139.72 8.67 199.48 36.78C261.36 65.86 247.19 119.91 201.6 163.43L201.6 163.43Z" />
		<path id="Layer" class="shp1" d="M141.21 161.99L194.09 131.03L194.09 70.4L141.21 39.88" />
		<path id="Layer" class="shp2" d="M141.21 39.88L88.33 70.4L88.33 129.08C88.33 129.44 88.38 129.8 88.47 130.15C88.56 130.49 88.7 130.83 88.88 131.14C89.06 131.45 89.28 131.74 89.54 131.99C89.79 132.25 90.08 132.47 90.39 132.65L141.21 162" />
		<path id="Layer" class="shp3" d="M192.71 71.17L141.21 100.91L89.71 71.17M141.21 100.93L141.21 161.99M141.21 98.77L141.21 113.21" />
		<path id="Layer" class="shp2" d="M83.53 67.21L83.53 80.68L141.21 113.75L141.21 87.89L83.53 67.21Z" />
		<path id="Layer" class="shp1" d="M198.89 67.21L198.89 80.68L141.21 113.75L141.21 93.38L192.03 65.91L198.89 67.21Z" />
		<path id="Layer" class="shp4" d="M198.89 66.86L141.21 99.93L83.53 66.86L139.16 35C139.47 34.82 139.8 34.68 140.15 34.59C140.5 34.5 140.85 34.45 141.21 34.45C141.57 34.45 141.92 34.5 142.27 34.59C142.62 34.68 142.95 34.82 143.26 35L198.89 66.86Z" />
		<path id="Layer" class="shp1" d="M109.46 145.62L149.29 148.17C151.27 148.17 153.18 147.38 154.58 145.98C155.98 144.58 156.77 142.67 156.77 140.69C156.77 138.71 155.98 136.8 154.58 135.4C153.18 134 151.27 133.21 149.29 133.21L148.44 133.21C145.53 133.21 142.63 132.99 139.76 132.56C136.88 132.13 134.04 131.49 131.26 130.65C128.48 129.8 125.76 128.75 123.14 127.51C120.51 126.26 117.98 124.83 115.56 123.21C114.19 122.3 112.75 121.49 111.27 120.78C109.78 120.08 108.24 119.49 106.66 119.01C105.09 118.53 103.48 118.17 101.85 117.93C100.22 117.69 98.58 117.57 96.93 117.57L80.53 117.57L81.23 153.35L125.23 168.08C126.4 168.47 127.61 168.76 128.84 168.94C130.06 169.12 131.3 169.18 132.54 169.14C133.77 169.1 135 168.95 136.21 168.68C137.42 168.42 138.61 168.05 139.75 167.58L201.06 142.23C201.96 141.86 202.78 141.31 203.46 140.61C204.14 139.92 204.67 139.09 205.03 138.18C205.38 137.28 205.55 136.31 205.52 135.33C205.49 134.36 205.26 133.4 204.85 132.52C204.47 131.69 203.93 130.94 203.26 130.31C202.59 129.68 201.81 129.18 200.96 128.84C200.11 128.5 199.2 128.33 198.29 128.33C197.37 128.33 196.46 128.51 195.61 128.85L155.54 145" />
		<path id="Layer" class="shp4" d="M67.14 118.55C67.14 115.5 69.62 113.02 72.67 113.02L75.69 113.02C78.74 113.02 81.22 115.5 81.22 118.55L81.22 152.05C81.22 155.1 78.74 157.58 75.69 157.58L72.67 157.58C69.62 157.58 67.14 155.1 67.14 152.05L67.14 118.55Z" />
		<path id="Layer" class="shp5" d="M74.45 151.15C73.07 151.15 71.95 150.03 71.95 148.65C71.95 147.27 73.07 146.15 74.45 146.15C75.83 146.15 76.95 147.27 76.95 148.65C76.95 150.03 75.83 151.15 74.45 151.15Z" />
	</g>
	<g id="Folder 1">
		<path id="Layer" fill-rule="evenodd" class="shp6" d="M125.42 63.09C125.37 62.89 125.33 62.69 125.27 62.47C124.66 62.64 124.13 62.85 124.24 63.62C123.44 63.64 122.72 63.7 122 63.89C121 64.16 120.49 63.6 119.98 62.6C119.71 62.07 119.56 61.1 118.49 61.15C117.91 61.17 117.76 60.79 117.97 60.12C118.2 59.4 119.04 59.07 118.97 58.22C119.34 58.2 119.65 58.18 119.97 58.16C120.15 57.49 119.65 57.38 119.19 57.26C119.39 56.83 119.34 56.26 120.02 56.34C119.71 55.12 120.32 55.17 122.08 54.95C122.11 54.62 122.36 54.21 121.7 54.17C121.26 54.14 121.07 53.82 121.36 53.58C122.37 52.75 123.01 51.61 123.88 50.69C124.38 50.17 125.34 50.25 125.97 49.73C126.4 49.38 127.59 49.53 128.07 49.91C128.34 49.65 128.44 49.24 128.78 49.13C131.32 48.55 133.15 49.97 134.93 51.51C134.91 51.54 134.77 51.8 134.57 52.17C135.84 52.07 135.98 53.15 136.54 53.78C136.58 54.01 136.47 54.25 136.74 54.44C137.53 54.95 137.33 55.88 137.34 56.55C137.37 57.58 136.3 57.86 135.53 58.19C135.11 58.18 135.26 57.51 134.74 57.64C134.18 57.79 134.49 58.31 134.27 58.56C134.49 58.81 134.82 58.78 135.11 58.88C135.08 59.54 134.45 59.72 134.08 59.7C133.27 59.64 133.61 58.5 132.88 58.18C132.2 58.79 132.18 59.74 131.75 60.48C130.79 62.13 130.56 62.21 128.77 61.4C128.55 61.3 128.09 61.02 128.04 61.68C128.02 61.89 127.78 62.08 127.52 62.14C127.39 61.98 127.51 61.66 127.22 61.64C126.96 61.61 126.87 61.81 126.86 62.04C126.81 63.59 126.59 65.16 127.65 66.57C128.36 65.36 127.24 64.1 127.72 62.85C128.14 63.17 128.36 63.55 128.79 63.6C128.72 65.23 128.16 66.74 128.31 68.32C128.31 68.32 128.26 68.36 128.26 68.36C128.22 68.41 128.17 68.47 128.13 68.52C128.21 69.28 128.29 70.03 128.36 70.79L128.36 70.8C128.37 71.01 128.38 71.21 128.39 71.42L128.39 71.44C128.39 72.06 128.39 72.69 128.39 73.31C128.41 75.35 128.44 77.39 128.44 79.42C128.43 80.16 128.8 80.43 129.46 80.43C133.04 80.43 136.63 80.25 140.21 80.42C140.51 80.43 140.81 80.42 140.94 80.11C141.6 78.51 142.49 76.99 142.86 75.27C143.19 73.75 142.76 73.26 141.44 73.49C140.24 73.46 139.33 72.79 138.43 72.1L138.43 72.1L138.41 72.07C137.53 70.64 136.55 69.35 134.65 69.35C134.7 68.49 135.19 68.23 135.79 68.26C136.22 68.29 136.65 68.29 137.03 68.14C137.78 67.85 138.18 68.13 138.46 68.8C138.59 69.13 138.77 69.43 138.92 69.75C139.51 70.98 140.34 71.43 141.61 71.17C142.78 70.93 143.43 70.14 143.48 68.85C143.5 68.37 143.77 68.01 143.92 67.6C144.21 66.76 145.53 66.54 145.2 65.38C145.37 64.64 145.76 63.93 145.52 63.13C145.36 62.61 145.52 62.25 146.07 62.31C146.53 62.37 147.03 62.63 146.84 63.25C146.77 63.49 146.74 63.66 146.91 63.8C147.63 64.39 147.5 65.24 147.61 66.02C147.43 66.62 147.25 67.22 147.07 67.82C147.5 68.01 147.86 67.87 148.24 67.8C149 67.67 149.9 67.31 150.45 68.12C150.75 68.56 151.11 68.84 151.51 69.07C152.48 69.64 153.11 70.51 153.39 71.53C153.72 72.79 153.84 74.1 154.05 75.39C154.06 75.43 153.98 75.48 153.92 75.56C153.25 75.01 153.72 74.17 153.37 73.41C152.56 75.77 153.88 78.12 152.65 80.37C154.84 80.48 156.7 80.34 158.54 80.6C160.14 80.63 161.77 80.4 163.33 80.95C149.35 81.54 135.37 81.56 121.37 81.08C121.55 80.49 121.96 80.64 122.29 80.64C123.31 80.62 124.33 80.62 125.34 80.63C125.63 80.63 125.9 80.63 126.11 80.39C126.86 80.5 127.48 80.38 127.48 79.44C127.48 77.66 127.46 75.87 127.45 74.09C127.44 72.81 127.44 71.54 127.44 70.27C127.3 68.24 126.64 66.31 126.43 64.3C126.36 63.65 126.19 63.13 125.42 63.09ZM135.11 58.88C135.11 58.87 135.11 58.87 135.11 58.87L135.12 58.88C135.12 58.88 135.11 58.88 135.11 58.88ZM145.94 74.29C145.84 74.82 145.68 75.25 145.89 75.64C146.49 76.72 146.64 77.86 146.53 79.09C146.44 79.98 146.85 80.44 147.83 80.34C148.46 80.27 149.1 80.35 149.73 80.38C150.12 80.39 150.49 80.38 150.81 80.09C151.44 79.49 152.01 77.44 151.59 76.66C151.04 75.61 150.53 74.56 150.55 73.36C148.85 73.22 147.6 74.5 145.94 74.29ZM144.3 75C143.16 76.63 142.61 78.52 141.4 80.34C142.98 80.34 144.27 80.34 145.55 80.33C145.68 80.33 145.82 80.3 145.94 80.28C146.21 78.86 145.39 76.07 144.3 75ZM130.81 58.64C130.66 58.17 130.59 57.62 130.05 57.65C129.62 57.67 129.16 58.01 129.18 58.5C129.2 58.94 129.63 59.31 130.03 59.37C130.44 59.42 130.75 59.06 130.81 58.64ZM151.91 80.15C152.59 79.51 152.53 78.82 152.47 78.13C152.24 78.72 151.64 79.2 151.91 80.15ZM130.83 55.92C131.3 55.4 131.89 55.14 131.86 54.41C130.82 54.83 130.82 54.83 130.83 55.92Z" />
		<path id="Layer" fill-rule="evenodd" class="shp7" d="M145.2 65.38C144.64 64.94 144.23 65.56 143.74 65.6C141.73 65.76 139.75 65.39 137.77 65.12C137.19 65.04 137.03 64.67 137.48 64.14C138.29 63.18 140.43 62.68 141.55 63.23C142.41 63.65 143.99 63.22 144.35 62.37C144.64 61.65 145.14 61.36 145.82 61.22C146.78 61.02 147.33 60.57 147.38 59.47C147.45 57.94 149.6 56.91 151.02 57.66C151.52 57.92 151.99 58.15 152.56 58.27C153.48 58.47 154.03 59.28 154.28 60.08C154.97 62.22 156.53 62.44 157.69 60.96C158.16 61.15 158.61 61.54 159.12 61.03C159.18 60.98 159.36 60.96 159.42 61.01C160.66 62.1 161.53 60.89 162.5 60.48C163.27 60.16 163.93 60.41 164.31 61.33C164.52 61.85 164.51 62.35 164.34 62.91C165.04 63.19 165.69 63.37 166.46 63.12C167.05 62.93 167.82 62.91 168.03 63.74C168.23 64.56 167.75 65.11 167.01 65.36C166.02 65.69 165.03 65.75 163.94 65.7C162.78 65.66 161.42 65.41 160.34 66.31C159.94 66.23 160.07 65.58 159.54 65.6C158.85 65.62 158.15 65.54 157.46 65.54C155.89 65.54 154.31 65.7 152.76 65.55C150.99 65.39 149.31 65.76 147.61 66.02C147.5 65.24 147.63 64.39 146.91 63.8C146.74 63.66 146.77 63.49 146.84 63.25C147.03 62.63 146.53 62.37 146.07 62.31C145.53 62.25 145.36 62.61 145.52 63.13C145.76 63.93 145.37 64.64 145.2 65.38Z" />
		<path id="Layer" fill-rule="evenodd" class="shp7" d="M127.44 70.27C127.44 71.54 127.44 72.81 127.45 74.09C126.31 74.05 125.21 73.56 124.05 73.86C122.3 74.27 120.52 73.86 118.76 74.08C117.91 74.19 117.2 73.76 116.46 73.48C115.98 73.3 115.9 72.76 116.1 72.3C116.31 71.82 116.71 71.6 117.22 71.81C117.86 72.08 118.44 71.96 119.02 71.64C119.02 71.26 118.97 70.87 119.04 70.5C119.24 69.46 120.05 69.11 120.88 69.74C121.39 70.12 122.15 69.99 122.47 70.68C122.96 70.38 123.4 70.11 123.83 69.84C125.12 70.79 126.42 70.94 127.44 70.27Z" />
		<path id="Layer" fill-rule="evenodd" class="shp7" d="M124.03 68.34C124.08 68.65 124.17 68.97 123.85 69.2C123.83 68.9 123.77 68.59 124.03 68.34Z" />
		<path id="Layer" fill-rule="evenodd" class="shp7" d="M141.44 73.48C140.02 73.98 138.54 73.93 137.08 73.84C135.81 73.75 134.6 73.75 133.32 73.98C131.87 74.23 130.32 73.93 128.81 73.86C128.5 73.84 128.56 73.47 128.39 73.31C128.39 72.69 128.39 72.06 128.39 71.44C128.39 71.44 128.44 71.43 128.44 71.43L128.39 71.42C128.38 71.21 128.37 71.01 128.36 70.8C128.36 70.8 128.41 70.79 128.41 70.79L128.36 70.79C128.29 70.03 128.21 69.27 128.13 68.52C128.17 68.47 128.22 68.41 128.26 68.36C128.26 68.36 128.31 68.32 128.31 68.32C129.52 67.51 130.87 67.23 132.3 67.26C132.95 67.28 133.29 67.59 133.43 68.26C133.64 69.22 133.94 70.1 135.15 70.34C135.98 70.5 136.34 71.46 137.12 71.85C137.57 72.06 137.94 72.21 138.41 72.07C138.41 72.07 138.43 72.1 138.43 72.1C138.42 72.13 138.41 72.16 138.4 72.19C138.41 72.16 138.42 72.13 138.43 72.1C139.33 72.79 140.24 73.46 141.44 73.48Z" />
	</g>
</svg>