<svg version="1.2" baseProfile="tiny-ps" xmlns="http://www.w3.org/2000/svg" viewBox="0 0 274 204" width="274" height="204">
	<title>d5d5e1d2[3]-svg</title>
	<style>
		tspan { white-space:pre }
		.shp0 { fill: #00bfd6 } 
		.shp1 { fill: #ffffff } 
		.shp2 { fill: #ffffff;stroke: #000000;stroke-linecap:round;stroke-linejoin:round } 
		.shp3 { fill: #f2f2f2;stroke: #000000;stroke-linecap:round;stroke-linejoin:round } 
		.shp4 { fill: none;stroke: #000000;stroke-linecap:round;stroke-linejoin:round } 
		.shp5 { fill: none;stroke: #ff637d;stroke-linecap:round;stroke-linejoin:round } 
		.shp6 { fill: #262122 } 
		.shp7 { fill: #ff0000 } 
	</style>
	<g id="Layer" style="opacity: 0.4">
		<path id="Layer" class="shp0" d="M204.6 166.67C156.84 212.26 119.2 210.05 71.43 164.46C25.84 120.94 23.43 80.46 69.01 36.91C116.77 -8.68 142.72 11.91 202.48 40.02C264.36 69.1 250.19 123.15 204.6 166.67Z" />
	</g>
	<path id="Layer" class="shp1" d="M97.49 47.6L188.91 47.6L188.91 166.33L107.05 166.33C105.79 166.33 104.55 166.08 103.39 165.6C102.23 165.12 101.18 164.42 100.29 163.53C99.4 162.64 98.7 161.59 98.22 160.43C97.74 159.27 97.49 158.03 97.49 156.77L97.49 47.6Z" />
	<path id="Layer" class="shp2" d="M87.49 40.38L179.68 40.38C181.65 40.38 183.6 40.77 185.42 41.52C187.24 42.28 188.89 43.38 190.29 44.77C191.68 46.17 192.78 47.82 193.54 49.64C194.29 51.46 194.68 53.41 194.68 55.38L194.68 166.33" />
	<path id="Layer" class="shp3" d="M97.49 156.49L97.49 65L97.32 50.22C97.31 47.61 96.28 45.11 94.44 43.27C92.59 41.43 90.09 40.39 87.48 40.39C84.88 40.39 82.38 41.43 80.53 43.27C78.69 45.11 77.65 47.61 77.65 50.22L97.32 50.22" />
	<path id="Layer" class="shp3" d="M107.32 166.33C108.61 166.33 109.89 166.08 111.08 165.58C112.27 165.09 113.36 164.36 114.27 163.45C115.18 162.54 115.91 161.45 116.4 160.26C116.9 159.07 117.15 157.79 117.15 156.5L208.51 156.5C208.51 157.79 208.26 159.07 207.76 160.26C207.27 161.45 206.54 162.54 205.63 163.45C204.72 164.36 203.63 165.09 202.44 165.58C201.25 166.08 199.97 166.33 198.68 166.33L107.32 166.33Z" />
	<path id="Layer" class="shp4" d="M97.49 156.49C97.49 157.78 97.74 159.06 98.24 160.25C98.73 161.44 99.46 162.53 100.37 163.44C101.28 164.35 102.37 165.08 103.56 165.57C104.75 166.07 106.03 166.32 107.32 166.32" />
	<path id="Layer" class="shp2" d="M166.41 84.6L179.41 84.6L179.41 97.6L166.41 97.6L166.41 84.6Z" />
	<path id="Layer" class="shp2" d="M166.41 106.48L179.41 106.48L179.41 119.48L166.41 119.48L166.41 106.48Z" />
	<path id="Layer" class="shp2" d="M166.41 128.35L179.41 128.35L179.41 141.35L166.41 141.35L166.41 128.35Z" />
	<path id="Layer" class="shp4" d="M159.66 91.1L119.16 91.1" />
	<path id="Layer" class="shp4" d="M159.66 113.06L119.16 113.06" />
	<path id="Layer" class="shp4" d="M159.66 135.02L119.16 135.02" />
	<path id="Layer" class="shp5" d="M169.06 87.26L176.75 94.94" />
	<path id="Layer" class="shp5" d="M176.75 87.26L169.06 94.94" />
	<path id="Layer" class="shp5" d="M169.06 109.13L176.75 116.82" />
	<path id="Layer" class="shp5" d="M176.75 109.13L169.06 116.82" />
	<path id="Layer" class="shp5" d="M169.06 131.01L176.75 138.7" />
	<path id="Layer" fill-rule="evenodd" class="shp6" d="M164.24 65.98C164.21 69.81 161.14 72.85 157.33 72.81C153.55 72.77 150.42 69.6 150.49 65.87C150.55 62.06 153.65 59.02 157.44 59.04C160.98 59.05 164.43 62.13 164.24 65.98ZM162.99 65.92C162.98 62.87 160.49 60.32 157.5 60.28C154.36 60.24 151.73 62.85 151.76 65.99C151.8 69 154.32 71.52 157.34 71.55C160.4 71.59 162.99 69 162.99 65.92Z" />
	<path id="Layer" fill-rule="evenodd" class="shp6" d="M150.23 72.48C149.36 72.82 148.86 72.68 148.5 71.91C148.02 70.84 147.44 69.83 146.91 68.79C145.64 66.31 145.64 66.31 142.62 66.73C142.32 68.67 142.85 70.7 142.15 72.61C141.58 72.73 141.25 72.64 141.25 71.96C141.27 67.75 141.26 63.53 141.26 59.16C143.01 59.16 144.63 59.09 146.24 59.17C148.02 59.26 149.37 60.42 149.76 62.05C150.13 63.63 149.39 65.21 147.82 66.14C147.61 66.27 147.39 66.4 147.17 66.53C148.17 68.48 149.17 70.41 150.23 72.48ZM142.61 60.47C142.61 62.15 142.61 63.65 142.61 65.12C143.16 65.42 143.68 65.32 144.18 65.32C144.94 65.32 145.71 65.32 146.46 65.22C147.84 65.05 148.51 64.16 148.56 62.84C148.61 61.58 147.61 60.56 146.26 60.48C145.1 60.41 143.93 60.47 142.61 60.47Z" />
	<path id="Layer" fill-rule="evenodd" class="shp6" d="M182.29 61.46C182.86 60.96 183.23 61.24 183.63 61.74C185.86 64.46 185.23 68.4 182.7 70.85C180.54 72.95 178.09 72.56 175.6 72.64C174.81 72.67 174.67 71.92 174.73 71.51C175.26 68.02 174.82 64.52 174.96 61.03C174.99 60.48 174.97 59.92 174.97 59.21C177.17 59.14 179.27 58.89 181.31 59.85C182.04 60.19 182.47 60.64 182.32 61.49C181.91 61.76 181.58 61.49 181.28 61.3C179.73 60.3 178.05 60.31 176.28 60.52C176.28 64.15 176.28 67.69 176.28 71.39C176.95 71.39 177.55 71.38 178.15 71.39C180.48 71.43 182.15 70.32 183.2 68.33C184.25 66.34 183.95 64.4 182.66 62.59C182.43 62.26 182.01 61.97 182.29 61.46Z" />
	<path id="Layer" fill-rule="evenodd" class="shp7" d="M128.64 66.22C130.5 63.92 132.08 61.95 133.67 59.99C134.36 59.15 134.38 59.16 135.83 59.25C134.03 61.52 132.32 63.69 130.58 65.88C132.39 68.1 134.17 70.29 136.01 72.55C134.63 72.91 133.86 72.29 133.3 71.41C132.28 69.82 130.99 68.47 129.81 67.01C128.05 68.2 128.76 69.96 128.67 71.49C128.62 72.35 128.54 72.93 127.37 72.49C127.37 68.33 127.37 64.16 127.36 59.99C127.36 59.53 127.43 59.17 127.99 59.17C128.67 59.17 128.65 59.64 128.65 60.12C128.64 62 128.64 63.89 128.64 66.22Z" />
	<path id="Layer" fill-rule="evenodd" class="shp6" d="M173.35 59.28C173.35 63.71 173.35 68.08 173.35 72.45C172.49 72.59 172.49 72.59 171.98 69.29C170.45 69.29 168.88 69.18 167.33 69.33C166.07 69.44 165.94 70.81 165.36 71.64C164.85 72.36 164.42 72.96 163.3 72.49C165.39 69.17 167.46 65.88 169.54 62.58C170.03 61.81 170.56 61.06 170.99 60.26C171.49 59.32 172.15 58.87 173.35 59.28ZM167.67 67.94C169.31 67.94 170.66 67.94 172.08 67.94C172.08 65.7 172.08 63.52 172.08 60.96C170.54 63.4 169.19 65.54 167.67 67.94Z" />
	<path id="Layer" fill-rule="evenodd" class="shp7" d="M105 70.31C105.6 69.8 105.98 69.68 106.6 70.41C107.74 71.74 109.81 71.9 111.2 70.98C112.7 69.99 112.73 68.36 111.23 67.41C110.63 67.04 109.94 66.83 109.29 66.55C109.19 66.51 109.1 66.47 109 66.44C107.09 65.85 105.23 65.14 105.03 62.79C104.91 61.31 105.67 60.16 107.06 59.49C108.94 58.58 111.21 58.95 112.88 60.44C112.54 61.19 112.12 61.36 111.37 60.84C110.55 60.27 109.58 60.16 108.59 60.35C107.4 60.59 106.44 61.11 106.31 62.45C106.18 63.68 107.05 64.28 108 64.73C109.32 65.36 110.83 65.55 112.06 66.42C114.07 67.82 114.16 70.37 112.21 71.82C110.54 73.06 108.72 73.09 106.87 72.22C106.06 71.83 105.45 71.24 105 70.31Z" />
	<path id="Layer" fill-rule="evenodd" class="shp7" d="M120.22 71.35C121.88 71.35 123.6 71.38 125.31 71.34C126.3 71.32 126.39 71.79 126.12 72.61C123.72 72.61 121.34 72.61 118.9 72.61C118.58 71.69 118.76 70.77 118.75 69.88C118.73 66.68 118.74 63.47 118.75 60.27C118.75 59.8 118.54 59.15 119.38 59.16C120.2 59.18 120 59.81 120 60.28C120.01 63.44 120 66.59 120.01 69.75C120.02 70.24 119.88 70.76 120.22 71.35Z" />
	<path id="Layer" fill-rule="evenodd" class="shp7" d="M116.45 59.19C116.45 63.44 116.43 67.57 116.46 71.69C116.47 72.66 116.1 72.85 115.19 72.46C115.19 68.29 115.2 64.13 115.18 59.96C115.17 59.03 115.61 58.95 116.45 59.19Z" />
	<path id="Layer" class="shp5" d="M176.75 131.01L169.06 138.7" />
</svg>